<?xml version="1.0" standalone="no"?>
<!DOCTYPE svg PUBLIC "-//W3C//DTD SVG 20010904//EN"
 "http://www.w3.org/TR/2001/REC-SVG-20010904/DTD/svg10.dtd">
<svg version="1.0" xmlns="http://www.w3.org/2000/svg"
 width="220.000000pt" height="220.000000pt" viewBox="0 0 220.000000 220.000000"
 preserveAspectRatio="xMidYMid meet">
<metadata>
Created by potrace 1.11, written by Peter Selinger 2001-2013
</metadata>
<g transform="translate(0.000000,220.000000) scale(0.100000,-0.100000)"
fill="#000000" stroke="none">
<path d="M518 2171 c-97 -75 -327 -312 -358 -372 -7 -12 -2 -36 18 -87 90
-219 282 -460 495 -621 l58 -44 -63 -65 -63 -64 49 6 c26 3 59 12 73 21 l25
16 -4 -203 -3 -203 95 -32 c52 -18 107 -33 123 -33 15 0 27 -3 28 -7 0 -5 2
-22 2 -40 2 -32 14 -48 77 -95 36 -27 36 -27 65 -9 66 42 89 70 87 106 -3 34
-2 35 55 50 32 9 87 27 123 39 l65 24 -1 78 c-1 44 -4 132 -8 197 -3 64 -2
117 2 117 4 0 25 -7 47 -15 22 -8 53 -14 69 -15 29 0 29 0 -27 59 -32 33 -57
64 -57 69 0 5 19 24 43 43 254 203 433 430 507 643 17 51 17 51 -7 89 -31 49
-209 233 -301 313 l-73 62 -162 -54 c-89 -31 -188 -61 -220 -69 -77 -18 -263
-13 -339 9 -32 9 -82 22 -110 30 -29 8 -103 30 -165 49 l-111 34 -34 -26z
m187 -58 c89 -28 168 -74 153 -89 -3 -2 -31 6 -64 18 -85 31 -211 31 -279 0
-49 -23 -152 -119 -139 -131 3 -3 11 1 17 10 17 23 96 78 137 96 54 23 159 25
236 4 65 -19 94 -35 81 -47 -3 -4 -24 -2 -46 3 -22 6 -45 7 -53 2 -9 -6 -6 -9
12 -9 39 0 75 -23 72 -46 -2 -19 -2 -19 12 0 78 99 119 119 251 121 127 2 175
-13 235 -74 l45 -46 23 23 c18 19 32 23 62 20 22 -2 36 0 32 4 -10 10 -62 12
-94 3 -21 -5 -28 -4 -28 7 0 25 128 56 223 54 98 -2 156 -26 218 -93 21 -23
39 -38 39 -32 0 20 -96 105 -145 129 -65 32 -189 33 -280 2 -34 -12 -64 -17
-69 -12 -16 16 123 74 209 87 68 11 104 5 153 -23 62 -36 183 -159 206 -208
36 -76 17 -190 -50 -316 l-34 -65 4 78 c3 45 1 77 -5 77 -5 0 -8 -3 -7 -7 2
-7 -13 -130 -17 -143 -1 -3 -7 -23 -13 -46 -9 -31 -79 -139 -118 -183 -3 -4 4
76 11 122 3 15 1 27 -4 27 -4 0 -8 -6 -8 -13 0 -7 -10 -55 -23 -106 -23 -94
-23 -94 -101 -175 -92 -94 -81 -97 -160 43 -29 51 -55 89 -57 83 -7 -21 61
-129 151 -240 48 -60 54 -73 35 -67 -63 19 -149 76 -216 143 -51 50 -68 63
-55 41 22 -39 84 -105 138 -146 l41 -31 2 -167 c3 -169 -2 -200 -34 -188 -8 3
-14 -1 -14 -10 0 -15 -45 -57 -61 -57 -5 0 -9 8 -9 18 -1 12 -5 10 -15 -9 -13
-23 -72 -56 -82 -45 -2 2 -5 152 -6 334 -1 182 -6 327 -10 323 -4 -5 -10 -172
-13 -372 l-4 -364 -28 -22 c-35 -29 -74 -29 -108 0 -29 26 -27 -7 -38 536 -3
152 -8 216 -17 225 -9 8 -10 7 -5 -9 11 -30 5 -639 -6 -651 -13 -12 -48 18
-56 49 l-8 32 -7 -27 -7 -28 -34 17 c-20 9 -40 29 -48 47 -8 17 -13 26 -11 19
4 -22 -14 -23 -33 -2 -16 18 -19 39 -19 180 -1 87 1 162 4 167 3 4 32 26 63
49 31 24 68 57 81 75 61 82 56 87 -13 17 -56 -56 -96 -86 -153 -114 -42 -21
-79 -36 -82 -34 -2 3 7 18 22 34 83 96 188 256 181 277 -3 7 -24 -24 -48 -69
-24 -45 -53 -94 -64 -108 l-22 -27 -70 69 c-82 78 -111 142 -122 258 -5 59 -7
64 -12 35 -3 -19 -5 -56 -5 -82 1 -26 -2 -45 -5 -43 -11 7 -85 136 -98 170
-18 49 -23 90 -24 181 -2 116 -19 74 -21 -48 -1 -49 -2 -88 -3 -88 -7 0 -85
148 -103 194 -30 80 -28 132 8 187 54 83 208 220 270 240 32 9 89 3 156 -18z"/>
<path d="M1260 1959 c0 -9 12 -27 27 -40 14 -13 41 -39 59 -57 l33 -33 -10 28
c-5 16 -25 36 -46 48 -21 11 -43 31 -50 45 -8 17 -13 19 -13 9z"/>
<path d="M933 1937 c-4 -7 -25 -23 -45 -36 -34 -20 -57 -55 -45 -68 3 -2 8 4
11 14 4 10 24 31 46 47 21 16 41 35 44 43 7 17 -1 17 -11 0z"/>
<path d="M1050 1920 c0 -15 66 -23 87 -10 16 10 14 11 -9 6 -15 -3 -38 -2 -52
4 -16 6 -26 6 -26 0z"/>
<path d="M1178 1923 c7 -3 16 -2 19 1 4 3 -2 6 -13 5 -11 0 -14 -3 -6 -6z"/>
<path d="M1232 1797 c-21 -22 -34 -46 -36 -68 -2 -19 -1 -25 1 -15 4 18 30 64
43 76 12 12 32 40 28 40 -2 0 -19 -15 -36 -33z"/>
<path d="M970 1812 c0 -6 6 -15 14 -19 8 -4 24 -28 35 -53 23 -50 29 -38 7 13
-14 34 -56 78 -56 59z"/>
<path d="M1274 1772 c-31 -26 -74 -99 -74 -123 0 -7 11 10 25 37 14 27 41 64
60 82 42 39 33 43 -11 4z"/>
<path d="M953 1750 c19 -16 44 -52 56 -80 24 -56 34 -65 21 -20 -12 42 -47 97
-73 115 -37 26 -39 16 -4 -15z"/>
<path d="M852 1694 c0 -53 3 -68 21 -84 11 -11 26 -20 31 -20 6 0 1 8 -12 18
-13 10 -25 33 -28 52 l-6 35 32 -30 c43 -41 69 -86 79 -137 l9 -43 1 38 c1 45
-21 103 -54 137 -12 14 -34 42 -48 62 l-25 37 0 -65z"/>
<path d="M1314 1702 c-58 -81 -66 -98 -70 -161 l-3 -56 10 53 c7 33 15 50 21
46 7 -4 8 -2 4 5 -7 11 16 48 60 96 16 16 33 76 22 74 -2 0 -21 -26 -44 -57z"/>
<path d="M1398 1690 c7 -47 -4 -72 -50 -119 -37 -39 -39 -42 -11 -22 48 33 73
73 73 119 0 23 -4 43 -8 46 -5 3 -6 -8 -4 -24z"/>
<path d="M801 1672 c-1 -47 10 -74 43 -106 47 -46 59 -48 19 -4 -41 46 -49 62
-56 123 -3 22 -4 19 -6 -13z"/>
<path d="M1353 1665 c0 -28 -28 -65 -50 -65 -7 0 -13 -4 -13 -9 0 -14 37 -1
56 20 17 19 28 79 14 79 -4 0 -7 -11 -7 -25z"/>
<path d="M1331 1405 c12 -22 26 -44 32 -50 15 -16 -20 48 -38 70 -9 11 -7 2 6
-20z"/>
<path d="M879 1413 c-32 -39 -44 -57 -32 -50 13 8 57 67 50 67 -2 0 -10 -8
-18 -17z"/>
<path d="M921 1305 c15 -45 32 -63 75 -80 22 -8 30 -10 19 -2 -26 16 -77 67
-92 92 -10 17 -10 15 -2 -10z"/>
<path d="M1280 1316 c0 -7 -18 -32 -40 -55 -22 -22 -35 -41 -29 -41 19 0 79
70 79 91 0 10 -2 19 -5 19 -3 0 -5 -6 -5 -14z"/>
<path d="M862 1300 c7 -11 18 -22 25 -24 19 -8 5 18 -17 32 -19 11 -19 11 -8
-8z"/>
<path d="M1326 1294 c-29 -25 -34 -42 -6 -21 16 13 45 47 39 47 -2 0 -17 -12
-33 -26z"/>
<path d="M1080 850 c-12 -8 -9 -9 13 -6 16 3 41 0 55 -5 19 -7 24 -7 17 0 -16
16 -68 23 -85 11z"/>
<path d="M1075 770 c-22 -5 -13 -7 35 -7 44 0 57 3 40 8 -31 9 -37 9 -75 -1z"/>
<path d="M1088 681 c12 -7 62 -4 62 5 0 2 -17 4 -37 4 -24 0 -33 -3 -25 -9z"/>
<path d="M1088 603 c12 -2 30 -2 40 0 9 3 -1 5 -23 4 -22 0 -30 -2 -17 -4z"/>
<path d="M765 246 c-26 -26 -27 -31 -23 -116 3 -101 13 -117 68 -123 41 -5 78
9 84 32 19 72 19 71 -23 71 -30 0 -38 -4 -38 -17 0 -34 -3 -43 -13 -43 -6 0
-10 35 -10 84 0 47 5 88 10 91 10 6 14 -10 12 -52 -1 -20 4 -23 38 -23 l38 0
-3 41 c-4 52 -21 69 -73 76 -35 5 -44 2 -67 -21z"/>
<path d="M949 260 c-4 -3 -10 -51 -11 -105 -2 -69 -7 -99 -15 -98 -6 1 -10 -5
-8 -15 2 -9 4 -20 4 -24 1 -5 17 -8 36 -8 46 0 55 20 55 119 0 47 4 81 10 81
6 0 10 -40 10 -100 l0 -100 35 0 35 0 0 125 c0 69 -3 125 -7 126 -35 4 -137 3
-144 -1z"/>
<path d="M1145 246 c-21 -21 -23 -32 -23 -107 1 -99 7 -114 51 -128 37 -13 74
-4 95 22 14 16 20 159 9 193 -16 45 -94 58 -132 20z m65 -111 c0 -47 -4 -85
-9 -85 -4 0 -9 38 -9 85 -1 49 3 85 8 85 6 0 10 -37 10 -85z"/>
<path d="M1313 257 c-7 -11 -11 -215 -5 -235 2 -6 20 -12 39 -12 33 0 34 2 33
33 -3 54 0 81 8 73 6 -7 8 -17 11 -83 1 -19 7 -23 34 -23 l33 0 1 125 c0 69
-2 125 -6 126 -63 8 -65 6 -62 -53 0 -15 -4 -30 -9 -33 -9 -5 -15 36 -11 71 2
15 -58 24 -66 11z"/>
</g>
</svg>
